<?xml version="1.0" encoding="UTF-8"?>
<svg width="193px" height="131px" viewBox="0 0 193 131" version="1.1" xmlns="http://www.w3.org/2000/svg" xmlns:xlink="http://www.w3.org/1999/xlink">
    <!-- Generator: Sketch 61.2 (89653) - https://sketch.com -->
    <title>Group 26</title>
    <desc>Created with Sketch.</desc>
    <defs>
        <polygon id="path-1" points="0 0.161097423 75.8398252 0.161097423 75.8398252 76.0004237 0 76.0004237"></polygon>
    </defs>
    <g id="Welcome" stroke="none" stroke-width="1" fill="none" fill-rule="evenodd">
        <g id="About" transform="translate(-263.000000, -6172.000000)">
            <g id="USA_Today" transform="translate(263.000000, 6172.000000)">
                <g id="Group-26" transform="translate(0.250000, 0.500000)">
                    <rect id="Rectangle-Copy-36" fill="#000000" fill-rule="nonzero" x="0" y="0" width="192" height="130"></rect>
                    <g id="Group-20" transform="translate(22.144366, 28.500000)">
                        <g id="Group-3" transform="translate(0.000000, 0.132341)">
                            <g id="Fill-1-Clipped">
                                <mask id="mask-2" fill="white">
                                    <use xlink:href="#path-1"></use>
                                </mask>
                                <g id="path-1"></g>
                                <path d="M75.8398252,38.0814062 C75.8398252,59.0234843 58.8623869,76.0006292 37.919135,76.0006292 C16.9779371,76.0006292 -8.80313788e-05,59.0234843 -8.80313788e-05,38.0814062 C-8.80313788e-05,17.1384477 16.9779371,0.161009392 37.919135,0.161009392 C58.8623869,0.161009392 75.8398252,17.1384477 75.8398252,38.0814062" id="Fill-1" fill="#FFFFFF" fill-rule="nonzero" mask="url(#mask-2)"></path>
                            </g>
                        </g>
                        <path d="M81.2095339,17.0340719 L81.2095339,8.40318199 L85.0902504,8.40318199 L85.0902504,15.9143126 C85.0902504,17.4008692 85.2448922,18.8489854 87.1950808,18.8489854 C89.1455627,18.8489854 89.3004978,17.4008692 89.3004978,15.9143126 L89.3004978,8.40318199 L93.1815079,8.40318199 L93.1815079,17.0340719 C93.1815079,20.3745692 91.0376505,22.2279231 87.1950808,22.2279231 C83.2366031,22.2279231 81.2095339,20.3745692 81.2095339,17.0340719" id="Fill-4" fill="#FFFFFF" fill-rule="nonzero"></path>
                        <path d="M94.2254133,20.2587493 L96.0984277,17.671507 C96.7938756,18.501643 97.952075,19.2543112 99.2845767,19.2543112 C100.288134,19.2543112 100.887335,18.83 100.887335,18.0383044 C100.887335,17.0916736 100.017878,16.8214174 98.5506885,16.3774458 C96.5808397,15.7788324 94.843687,14.7556143 94.843687,12.4192615 C94.843687,9.85079932 96.9482239,8.13272025 99.9219239,8.13272025 C101.987727,8.13272025 103.551751,8.76977399 104.536529,9.69674441 L102.778836,12.2839867 C102.219543,11.6469329 101.272912,11.1067137 100.114419,11.1067137 C99.1105681,11.1067137 98.6853764,11.5113646 98.6853764,12.0524641 C98.6853764,12.9022604 99.7097682,13.1334895 100.829527,13.4812134 C103.030018,14.1760744 104.729024,15.1802191 104.729024,17.671507 C104.729024,20.2778227 102.856597,22.2280112 99.4779523,22.2280112 C96.9860774,22.2280112 95.0558428,21.1660593 94.2254133,20.2587493" id="Fill-6" fill="#FFFFFF" fill-rule="nonzero"></path>
                        <path d="M109.943681,8.40315264 L114.211148,8.40315264 L119.24977,21.9573441 L115.215,21.9573441 L114.578238,20.0077424 L109.460681,20.0077424 L108.843288,21.9573441 L104.904764,21.9573441 L109.943681,8.40315264 L109.943681,8.40315264 Z M113.593461,16.9181345 L112.550289,13.6548113 C112.338133,13.0180509 112.164712,12.2064016 112.08695,11.6271551 L111.970749,11.6271551 C111.893868,12.2064016 111.719567,13.0180509 111.508291,13.6548113 L110.465119,16.9181345 L113.593461,16.9181345 Z" id="Fill-8" fill="#FFFFFF" fill-rule="nonzero"></path>
                        <polygon id="Fill-10" fill="#FFFFFF" fill-rule="nonzero" points="84.6085721 27.8064422 81.2680748 27.8064422 81.2680748 24.6590271 91.8294927 24.6590271 91.8294927 27.8064422 88.4895822 27.8064422 88.4895822 38.2143922 84.6085721 38.2143922"></polygon>
                        <path d="M92.1011282,31.4558124 C92.1011282,28.1153151 94.4952883,24.3889468 99.5344978,24.3889468 C104.593661,24.3889468 106.988115,28.1153151 106.988115,31.4558124 C106.988115,34.7766495 104.593661,38.4842377 99.5344978,38.4842377 C94.4952883,38.4842377 92.1011282,34.7766495 92.1011282,31.4558124 M102.99061,31.4558124 C102.99061,29.0229186 101.408392,27.7678845 99.5157177,27.7678845 C97.6617769,27.7678845 96.0780924,29.0229186 96.0780924,31.4558124 C96.0780924,33.8693394 97.6617769,35.1055934 99.5157177,35.1055934 C101.408392,35.1055934 102.99061,33.8693394 102.99061,31.4558124" id="Fill-12" fill="#FFFFFF" fill-rule="nonzero"></path>
                        <path d="M108.380214,24.6597313 L113.380396,24.6597313 C118.169009,24.6597313 120.91148,27.2082397 120.91148,31.4360934 C120.91148,35.5879467 118.092422,38.2136293 113.380396,38.2136293 L108.380214,38.2136293 L108.380214,24.6597313 L108.380214,24.6597313 Z M112.261223,35.0861679 L113.091653,35.0861679 C115.581767,35.0861679 116.914269,33.888941 116.914269,31.4360934 C116.914269,28.9841261 115.581767,27.7871927 113.091653,27.7871927 L112.261223,27.7871927 L112.261223,35.0861679 Z" id="Fill-14" fill="#FFFFFF" fill-rule="nonzero"></path>
                        <path d="M125.411791,24.6591738 L129.679259,24.6591738 L134.717881,38.2136586 L130.683404,38.2136586 L130.04635,36.2637636 L124.928792,36.2637636 L124.311399,38.2136586 L120.371995,38.2136586 L125.411791,24.6591738 L125.411791,24.6591738 Z M129.061865,33.1747425 L128.0184,29.9108324 C127.806244,29.2743656 127.632529,28.4630097 127.555355,27.8840566 L127.438861,27.8840566 C127.361979,28.4630097 127.187678,29.2743656 126.975815,29.9108324 L125.932937,33.1747425 L129.061865,33.1747425 Z" id="Fill-16" fill="#FFFFFF" fill-rule="nonzero"></path>
                        <path d="M137.11433,33.386634 L132.055167,24.65979 L136.302974,24.65979 L138.137842,27.9997005 C138.523713,28.7139284 139.065106,29.7952472 139.180427,30.5097686 L139.257308,30.5097686 C139.373509,29.7952472 139.914315,28.7139284 140.300186,27.9997005 L142.13476,24.65979 L146.266366,24.65979 L141.207497,33.386634 L141.207497,38.2142748 L137.11433,38.2142748 L137.11433,33.386634" id="Fill-18" fill="#FFFFFF" fill-rule="nonzero"></path>
                    </g>
                </g>
            </g>
        </g>
    </g>
</svg>