<?xml version="1.0" encoding="UTF-8"?>
<svg width="193px" height="130px" viewBox="0 0 193 130" version="1.1" xmlns="http://www.w3.org/2000/svg" xmlns:xlink="http://www.w3.org/1999/xlink">
    <!-- Generator: Sketch 61.2 (89653) - https://sketch.com -->
    <title>HuffPo</title>
    <desc>Created with Sketch.</desc>
    <defs>
        <polygon id="path-1" points="0.172741305 0.211544467 21.2272605 0.211544467 21.2272605 21.7891521 0.172741305 21.7891521"></polygon>
        <polygon id="path-3" points="0 0.223790513 11.1426305 0.223790513 11.1426305 20.9088053 0 20.9088053"></polygon>
        <polygon id="path-5" points="0.178792293 0.192959289 11.3215909 0.192959289 11.3215909 20.8782142 0.178792293 20.8782142"></polygon>
    </defs>
    <g id="Welcome" stroke="none" stroke-width="1" fill="none" fill-rule="evenodd">
        <g id="About" transform="translate(-504.000000, -6172.000000)">
            <g id="USA_Today" transform="translate(263.000000, 6171.000000)">
                <g id="HuffPo" transform="translate(241.000000, 0.500000)">
                    <rect id="Rectangle-Copy-37" fill="#000000" fill-rule="nonzero" x="0.25" y="0.5" width="192" height="130"></rect>
                    <g id="Group-24" transform="translate(4.772727, 52.000000)">
                        <polygon id="Fill-1" fill="#FFFFFF" fill-rule="nonzero" points="23.8554445 21.4175686 30.5965334 21.4175686 34.1978318 0.732553755 27.456983 0.732553755 26.1332092 8.15077707 20.2848813 8.15077707 21.6084148 0.732553755 14.8980611 0.732553755 11.2967627 21.4175686 18.0378516 21.4175686 19.3921203 13.660538 25.2406885 13.660538"></polygon>
                        <g id="Group-23" transform="translate(0.000000, 0.028526)">
                            <path d="M38.04554,0.642485277 L35.9831615,12.1547303 C35.7985103,13.0472511 35.73704,13.9092768 35.73704,14.7403272 C35.73704,20.8350169 41.0621496,21.7582728 44.2634104,21.7582728 C50.9737642,21.7582728 53.8671931,19.5422185 54.944365,13.5089991 L57.1913947,0.611750099 L50.4505459,0.611750099 L48.5418433,11.4466207 C47.9264194,14.8327728 47.4954065,16.5870792 44.9712801,16.5870792 C43.3399144,16.5870792 42.5395992,15.7252935 42.5395992,13.9092768 C42.5395992,13.2321424 42.6320449,12.3701167 42.8474313,11.3234398 L44.7866289,0.611750099 L38.04554,0.642485277 Z" id="Fill-2" fill="#FFFFFF" fill-rule="nonzero"></path>
                            <path d="M103.363292,10.9542095 L101.424094,10.9542095 L102.316855,6.09084782 L104.132872,6.09084782 C105.610321,6.09084782 106.410636,6.82945257 106.410636,8.18396146 C106.410636,9.87703755 105.271754,10.9542095 103.363292,10.9542095 L103.363292,10.9542095 Z M92.8669883,21.3890425 L99.6080772,21.3890425 L100.562068,16.0639328 L103.732834,16.0639328 C109.611898,16.0639328 112.874629,12.8934071 112.874629,7.07581423 C112.874629,3.01276778 110.042911,0.673292491 105.117838,0.673292491 L96.4990219,0.673292491 L92.8669883,21.3890425 Z" id="Fill-4" fill="#FFFFFF" fill-rule="nonzero"></path>
                            <g id="Group-8" transform="translate(114.056324, 0.000000)">
                                <g id="Fill-6-Clipped">
                                    <mask id="mask-2" fill="white">
                                        <use xlink:href="#path-1"></use>
                                    </mask>
                                    <g id="path-1"></g>
                                    <path d="M9.93043992,16.4640424 C8.17589348,16.4640424 7.15995178,15.2019792 7.15995178,13.1088656 C7.15995178,12.3085503 7.22166226,11.6314159 7.37557826,10.8311007 C7.89879664,8.12232302 8.76058222,5.62917183 11.5003352,5.62917183 C13.2548817,5.62917183 14.2705832,6.89123508 14.2705832,8.98434872 C14.2705832,9.78466393 14.2088727,10.4617983 14.0551968,11.2621136 C13.5624735,13.939916 12.6699528,16.4640424 9.93043992,16.4640424 M11.9003727,0.211376384 C4.57435495,0.211376384 0.172741305,4.95203745 0.172741305,12.9242144 C0.172741305,18.4649505 3.65109901,21.7891521 9.49942707,21.7891521 C16.8254449,21.7891521 21.2274598,17.0489712 21.2274598,9.07655425 C21.2577937,3.53581809 17.7796761,0.211376384 11.9003727,0.211376384" id="Fill-6" fill="#FFFFFF" fill-rule="nonzero" mask="url(#mask-2)"></path>
                                </g>
                            </g>
                            <polygon id="Fill-9" fill="#FFFFFF" fill-rule="nonzero" points="158.769477 21.3890425 165.510565 21.3890425 168.188608 6.24476384 173.267356 6.24476384 174.252323 0.704027668 156.984195 0.704027668 155.999229 6.24476384 161.385808 6.24476384"></polygon>
                            <path d="M147.595871,8.33775741 C145.472023,7.66062302 144.609996,7.38352619 144.609996,6.39855979 C144.609996,5.7214254 145.041009,4.95184536 146.333808,4.95184536 C147.288039,4.95184536 148.088354,5.47506373 148.396186,6.27537896 L154.336959,4.67474852 C153.659825,1.75058449 151.135699,0.273134881 146.795556,0.273134881 C138.638487,0.273134881 137.992089,5.7214254 137.992089,7.41426136 C137.992089,10.8004135 139.77737,12.862792 143.68674,13.939964 C144.702442,14.2170608 145.903035,14.5248928 145.903035,15.6637752 C145.903035,16.556536 145.22566,17.1104896 144.086777,17.1104896 C143.040341,17.1104896 141.901459,16.4948256 141.532156,15.4174136 L135.652853,17.0180439 C136.299252,20.0963641 139.192681,21.8506704 143.717475,21.8506704 C147.165098,21.8506704 152.982691,20.9274145 152.982691,14.6788088 C152.982691,11.4775479 151.197409,9.41516947 147.595871,8.33775741" id="Fill-11" fill="#FFFFFF" fill-rule="nonzero"></path>
                            <g id="Group-15" transform="translate(0.000000, 0.480237)">
                                <g id="Fill-13-Clipped">
                                    <mask id="mask-4" fill="white">
                                        <use xlink:href="#path-3"></use>
                                    </mask>
                                    <g id="path-3"></g>
                                    <polygon id="Fill-13" fill="#FFFFFF" fill-rule="nonzero" mask="url(#mask-4)" points="7.51059694 20.9088053 11.1426305 0.223790513 -7.20355731e-05 0.223790513 -7.20355731e-05 20.9088053"></polygon>
                                </g>
                            </g>
                            <g id="Group-18" transform="translate(173.365612, 0.480237)">
                                <g id="Fill-16-Clipped">
                                    <mask id="mask-6" fill="white">
                                        <use xlink:href="#path-5"></use>
                                    </mask>
                                    <g id="path-5"></g>
                                    <polygon id="Fill-16" fill="#FFFFFF" fill-rule="nonzero" mask="url(#mask-6)" points="3.78033083 0.192959289 0.178792293 20.8782142 11.321735 20.8782142 11.321735 0.192959289"></polygon>
                                </g>
                            </g>
                            <polygon id="Fill-19" fill="#FFFFFF" fill-rule="nonzero" points="61.0391028 0.642485277 57.4378044 21.3889705 64.1788933 21.3889705 65.2560652 15.2637856 70.9199822 15.2637856 71.8434782 10.0616167 66.1795612 10.0616167 66.8259604 6.21395662 74.736667 6.21395662 75.7216334 0.642485277"></polygon>
                            <polygon id="Fill-21" fill="#FFFFFF" fill-rule="nonzero" points="78.7383632 0.642485277 75.1368247 21.3889705 81.8781537 21.3889705 82.9245904 15.2637856 88.6190025 15.2637856 89.5424985 10.0616167 83.8788216 10.0616167 84.5252208 6.21395662 92.4359273 6.21395662 93.4208938 0.642485277"></polygon>
                        </g>
                    </g>
                </g>
            </g>
        </g>
    </g>
</svg>