<?xml version="1.0" encoding="UTF-8"?>
<svg width="193px" height="130px" viewBox="0 0 193 130" version="1.1" xmlns="http://www.w3.org/2000/svg" xmlns:xlink="http://www.w3.org/1999/xlink">
    <!-- Generator: Sketch 61.2 (89653) - https://sketch.com -->
    <title>Group 19</title>
    <desc>Created with Sketch.</desc>
    <g id="Welcome" stroke="none" stroke-width="1" fill="none" fill-rule="evenodd">
        <g id="About" transform="translate(-264.000000, -2891.000000)" fill-rule="nonzero">
            <g id="Google" transform="translate(264.660377, 2891.000000)">
                <g id="Group-19">
                    <rect id="Rectangle" fill="#FFFFFF" x="0" y="0" width="192" height="130"></rect>
                    <path d="M132.545795,57.7366786 C133.029384,60.3253036 133.294884,63.0371964 133.294884,65.8723571 C133.294884,88.0036786 118.479036,103.744036 96.1011786,103.744036 C74.6952411,103.744036 57.3571429,86.4059375 57.3571429,65 C57.3571429,43.5940625 74.6952411,26.2559643 96.1011786,26.2559643 C106.564723,26.2559643 115.302518,30.1057143 122.011134,36.3544464 L111.087705,47.277875 L111.087705,47.2541696 C107.019866,43.3807143 101.86158,41.3942053 96.1011786,41.3942053 C83.314509,41.3942053 72.9268214,52.194366 72.9268214,64.9810357 C72.9268214,77.7629643 83.314509,88.5915714 96.1011786,88.5915714 C107.697839,88.5915714 115.591723,81.9540714 117.217911,72.8512143 L96.1011786,72.8512143 L96.1011786,57.7414196 L132.545795,57.7366786 L132.545795,57.7366786 Z" id="Path" fill="#000000"></path>
                </g>
            </g>
        </g>
    </g>
</svg>