<?xml version="1.0" encoding="UTF-8"?>
<svg width="193px" height="130px" viewBox="0 0 193 130" version="1.1" xmlns="http://www.w3.org/2000/svg" xmlns:xlink="http://www.w3.org/1999/xlink">
    <!-- Generator: Sketch 61.2 (89653) - https://sketch.com -->
    <title>Metlife</title>
    <desc>Created with Sketch.</desc>
    <g id="Welcome" stroke="none" stroke-width="1" fill="none" fill-rule="evenodd">
        <g id="About" transform="translate(-262.000000, -3445.000000)" fill-rule="nonzero">
            <g id="Metlife" transform="translate(262.000000, 3444.500000)">
                <rect id="Rectangle-Copy-21" fill="#FFFFFF" x="0.5" y="0.5" width="192" height="130"></rect>
                <g id="MetLife-Stadium-Logo" transform="translate(21.796117, 1.500000)" fill="#434343">
                    <path d="M36.3594692,115.758079 C35.9430732,115.570909 35.0892533,114.217623 35.2974514,114.009424 C35.3390909,113.967785 35.6307762,113.863687 35.9220453,113.780199 C36.3594692,113.6761 36.4841798,113.738767 36.6923778,114.175775 C36.8589361,114.550532 37.0879539,114.71709 37.4627104,114.71709 C37.8791064,114.71709 37.9832053,114.61299 37.9832053,114.155163 C37.9832053,113.759587 37.6292687,113.239092 36.7340174,112.302201 C35.5889285,111.115473 35.4848295,110.928094 35.4848295,110.074483 C35.4848295,109.30415 35.5889285,109.054521 36.0261442,108.700376 C36.5676672,108.262952 37.6086571,108.138242 38.2955023,108.388079 C38.6286191,108.512998 39.2323932,109.51214 39.2323932,109.928536 C39.2323932,110.303501 38.1703753,110.157762 37.8166469,109.699518 C37.3586113,109.158203 36.7340174,109.366401 36.7340174,110.053455 C36.7340174,110.365752 37.1504134,110.969318 37.9832053,111.781498 C39.1282943,112.926587 39.2323932,113.093146 39.2323932,113.946757 C39.2323932,114.529711 39.0866547,115.050207 38.8784566,115.320864 C38.441449,115.820747 37.0673424,116.049557 36.3594692,115.758079 Z M93.3640775,115.695621 C92.468618,115.237585 92.3230876,114.633811 92.3230876,111.344491 L92.3230876,108.262952 L93.7804734,108.262952 L93.7804734,114.73791 L94.3634278,114.67545 L94.9255624,114.612783 L94.9880217,111.448381 L95.0504812,108.262952 L96.4870473,108.262952 L96.4870473,111.177724 C96.4870473,113.259704 96.4037681,114.321722 96.1747503,114.821189 C95.7375346,115.882999 94.4883467,116.257754 93.3640775,115.695621 L93.3640775,115.695621 Z M47.5605209,112.63511 L47.5605209,109.51214 L46.9359269,109.51214 C46.3737923,109.51214 46.3113329,109.449681 46.3113329,108.887546 L46.3113329,108.262952 L50.0588967,108.262952 L50.0588967,108.887546 C50.0588967,109.449681 49.9964372,109.51214 49.4343027,109.51214 L48.8097088,109.51214 L48.8097088,115.758079 L47.5605209,115.758079 L47.5605209,112.63511 Z M57.2209073,115.404351 C57.2835749,115.196154 57.5748439,113.6761 57.8665293,112.010516 C58.5952222,108.013323 58.4911233,108.262952 59.4069862,108.262952 L60.1773186,108.262952 L60.8435523,111.864986 C61.2183086,113.821839 61.5097858,115.508451 61.5097858,115.612549 C61.5097858,115.695621 61.2389202,115.758079 60.8851919,115.758079 C60.4061283,115.758079 60.2605979,115.653981 60.2605979,115.362712 C60.2605979,114.571559 60.031372,114.300693 59.323707,114.300693 C58.678085,114.300693 58.6158339,114.363362 58.5533744,114.987955 C58.490915,115.570909 58.4076358,115.653981 57.8038617,115.716648 C57.2000875,115.778899 57.1168083,115.73726 57.2209073,115.404351 L57.2209073,115.404351 Z M59.7192832,111.969084 C59.5110851,110.282473 59.3028871,110.199402 59.0946892,111.677607 C58.8864911,113.030894 58.8864911,113.051714 59.3655548,113.051714 C59.8442019,113.051505 59.8442019,113.010074 59.7192832,111.969084 Z M69.8377052,112.010516 L69.8377052,108.262952 L70.9617661,108.262952 C73.3144033,108.262952 73.7934669,108.908574 73.7934669,112.073183 C73.7934669,114.196594 73.5436294,115.237585 72.960675,115.549882 C72.752477,115.675009 71.9611165,115.758079 71.2118119,115.758079 L69.8377052,115.758079 L69.8377052,112.010516 Z M72.2944415,112.093795 C72.3569008,109.616239 72.3360811,109.55378 71.8780455,109.428861 C71.6073881,109.366401 71.3365225,109.303734 71.2534515,109.303734 C71.1493525,109.303734 71.0868931,110.532102 71.0868931,112.031336 L71.0868931,114.73791 L71.6698475,114.67545 L72.231982,114.612783 L72.2944415,112.093795 Z M82.3295843,112.010516 L82.3295843,108.262952 L83.5787722,108.262952 L83.5787722,115.758079 L82.3295843,115.758079 L82.3295843,112.010516 Z M104.856398,112.073183 L104.919066,108.367051 L105.772677,108.304592 L106.626289,108.242132 L106.980226,109.970176 C107.56318,112.697777 107.56318,112.697777 108.021216,110.449031 L108.45864,108.367051 L109.353891,108.304592 L110.228322,108.242132 L110.228322,115.758079 L108.979135,115.758079 L108.958107,113.322371 L108.937287,110.865427 L108.64581,112.218714 C108.479251,112.968435 108.250442,114.071676 108.125315,114.675658 C107.958756,115.487422 107.813018,115.758079 107.54236,115.758079 C107.250883,115.758079 107.084325,115.300252 106.667929,113.218273 L106.168254,110.657229 L106.105586,113.218273 L106.043335,115.758079 L104.814967,115.758079 L104.856398,112.073183 Z M116.474054,101.163401 C112.74731,100.767825 110.290574,98.6650251 109.60352,95.250578 C109.103845,92.8354815 109.832538,89.9625574 111.331564,88.3386132 C111.789599,87.838938 112.767921,87.1518847 113.538462,86.7561003 C114.85011,86.1106866 114.995848,86.0898667 117.411152,86.0898667 C119.722151,86.0898667 120.013628,86.1315063 121.158717,86.6730293 C122.782661,87.4225421 123.802623,88.4427122 124.489885,89.9831691 C125.031199,91.1907174 125.530874,93.7307328 125.343496,94.2512278 C125.260217,94.4594257 124.052668,94.5218852 119.909529,94.5218852 L114.600272,94.5218852 L114.600272,95.0009487 C114.600272,96.3542356 116.03663,97.6448549 117.577503,97.6448549 C118.535214,97.6448549 119.763582,97.1659996 119.930141,96.707964 C120.034239,96.4583346 120.492275,96.395667 122.553435,96.395667 L125.051811,96.395667 L124.926891,96.93719 C124.843613,97.2284589 124.552136,97.8324413 124.281479,98.2694489 C122.928191,100.393068 119.930141,101.517337 116.474054,101.163401 L116.474054,101.163401 Z M120.429816,91.128258 C120.429816,89.7959991 117.619143,88.8172604 116.078478,89.6084127 C115.495523,89.9207097 114.808469,90.7743214 114.808469,91.1907174 C114.808469,91.3158444 115.828431,91.3989154 117.619143,91.3989154 C119.763582,91.3989154 120.429816,91.3364559 120.429816,91.128258 Z M51.5995617,100.705365 C48.5598711,99.5394566 47.0192061,97.4993245 46.7901883,94.2928674 C46.6028101,91.6487529 47.1441248,89.9623493 48.7264296,88.2759456 C50.1007444,86.7977399 51.7453003,86.1315063 54.2436762,86.0274073 C57.5123845,85.8816688 59.8442019,86.8601993 61.2391285,88.9632072 C62.0719204,90.2123951 62.3427859,91.0866184 62.4883164,93.0230679 L62.6132351,94.5218852 L51.9326785,94.5218852 L51.9326785,95.1050477 C51.9326785,95.9586594 52.6821913,96.9996494 53.535803,97.3741976 C54.6598639,97.8322331 56.1590976,97.6448549 56.8877905,96.9578015 C57.4082855,96.4583346 57.5956636,96.4164868 59.9066614,96.3542356 C61.4265067,96.312596 62.3425778,96.3750554 62.3425778,96.4997661 C62.3215497,97.041289 61.4887578,98.4776468 60.7810929,99.1649084 C60.3436688,99.5813044 59.4694455,100.18487 58.8240318,100.497167 C57.8040699,100.996842 57.3666459,101.080122 55.2638463,101.121761 C53.1818665,101.184221 52.703011,101.121761 51.5995617,100.705365 Z M57.7622221,91.149286 C57.7622221,91.024159 57.4082855,90.5661235 56.9502499,90.1291159 C56.221557,89.3796032 56.0549986,89.3171437 55.0140086,89.3171437 C53.7231811,89.3171437 52.6613714,89.8792782 52.2033358,90.7745296 L51.9534983,91.2950246 L54.5976127,91.3991235 C57.3874657,91.5030144 57.7622221,91.4821946 57.7622221,91.149286 L57.7622221,91.149286 Z M8.41929965,100.351429 C6.52448979,100.018312 4.60927653,99.6437637 4.15124097,99.5396648 C3.17271044,99.2898272 4.33841096,99.3522866 9.77258656,99.9144211 C12.624899,100.205898 13.1037543,100.309997 13.1662138,100.622294 C13.2703127,101.121761 12.6040791,101.080122 8.41929965,100.351429 Z M20.2865848,100.642906 C20.2865848,100.309789 23.263816,82.6546 23.5344734,81.3635643 L23.6596003,80.78061 L28.7812707,80.78061 L29.3642251,82.3004553 C29.6765221,83.1124274 30.5717734,85.4860926 31.342106,87.5264329 C32.1332583,89.5875929 32.7786721,91.3156362 32.7786721,91.3780955 C32.7994919,91.7320321 33.3822381,90.399565 35.2145885,85.8192094 L37.2339007,80.7599984 L39.8571954,80.8224577 L42.4596702,80.8849171 L43.8337769,89.9415295 C44.5834979,94.9174613 45.270343,99.4355658 45.3536222,99.9977003 L45.4993608,100.976023 L42.8968859,100.976023 C40.3568705,100.976023 40.2735913,100.955203 40.1903121,100.518195 C40.1278527,100.24733 39.7949442,97.7075225 39.4407994,94.8341821 C39.066043,91.9820779 38.753746,89.6084127 38.7329263,89.5878011 C38.7121064,89.5461615 37.8584947,91.5240423 36.8591444,93.9599588 C35.8391825,96.3750554 34.7771646,98.9567105 34.4648676,99.6854033 L33.9235528,100.997051 L32.7992837,100.934591 L31.6958344,100.871924 L29.468116,95.3132456 C28.2605676,92.2525271 27.2195777,89.7333315 27.1362985,89.7333315 C27.0738391,89.7333315 26.8656411,90.92006 26.6574432,92.3984739 C26.4702731,93.8558598 26.0953085,96.3750554 25.8662907,98.0198195 L25.429075,100.976023 L22.84742,100.976023 C20.6197015,100.976023 20.2865848,100.934591 20.2865848,100.642906 L20.2865848,100.642906 Z M66.4648978,95.9378396 L66.4024385,90.8784204 L65.1532506,90.7743214 L63.9248824,90.6702224 L63.9457022,88.7964405 C63.9873418,87.7764787 64.0083698,86.8601993 64.0083698,86.7771283 C64.0083698,86.6730293 64.5702962,86.6103617 65.2575577,86.6103617 L66.5067457,86.6103617 L66.5067457,82.2382041 L71.4824693,82.2382041 L71.5449286,84.3826432 L71.6075962,86.5062628 L72.9192436,86.5689304 L74.2100711,86.6313897 L74.2100711,90.7535016 L72.9192436,90.815961 L71.6075962,90.8784204 L71.5659566,95.4587761 C71.5449286,97.9781799 71.5034973,100.24733 71.5034973,100.518195 C71.503289,100.976023 71.4616495,100.976023 69.0049132,100.976023 L66.5065375,100.976023 L66.4648978,95.9378396 Z M76.2918427,90.7743214 L76.2918427,80.5726202 L81.7049903,80.5726202 L81.7049903,96.395667 L87.9509299,96.395667 L87.9509299,100.976023 L76.2918427,100.976023 L76.2918427,90.7743214 Z M89.8661432,93.3353648 L89.9288108,85.6734707 L92.4896459,85.6110114 L95.0296613,85.548552 L95.0296613,100.976023 L89.8247117,100.976023 L89.8661432,93.3353648 Z M100.192971,96.1460376 L100.130512,91.2948164 L98.8186565,91.232357 L97.5070091,91.1698976 L97.5694686,89.1503771 L97.6321362,87.1308567 L98.9437835,87.0683973 L100.234611,87.0059378 L100.234611,85.4860926 C100.234611,83.5912828 100.671827,82.3004553 101.670969,81.1553664 C103.003436,79.6355211 105.480992,78.719658 107.375594,78.9903154 C108.811952,79.2193332 108.874619,79.344252 108.811952,81.7799602 C108.749909,83.7788691 108.729089,83.8829682 108.354332,83.6955899 C108.146134,83.5706712 107.54236,83.4873919 107.021865,83.4873919 C106.230713,83.4873919 106.022515,83.5706712 105.710218,84.0289149 C105.52284,84.3412119 105.314642,85.1323642 105.272794,85.7985978 L105.189723,87.0267577 L108.354332,87.0267577 L108.354332,91.1698976 L106.855307,91.232357 L105.335462,91.2948164 L105.272794,96.1460376 L105.231363,100.976023 L100.234611,100.976023 L100.192971,96.1460376 Z M132.088903,100.663726 C132.088903,100.268358 132.193002,100.24733 137.189754,99.7268348 C141.540883,99.289619 141.999127,99.2479794 141.85318,99.3937179 C141.728262,99.5394566 133.212964,100.976023 132.588369,100.976023 C132.276281,100.976023 132.088903,100.851104 132.088903,100.663726 Z M8.93979461,94.6259842 C6.87863457,94.4594257 4.81747452,94.3347151 4.38025875,94.3347151 C3.92222318,94.3136872 3.60992621,94.2514359 3.6932054,94.1889766 C3.83894399,94.043238 13.6034295,93.9183192 13.9990057,94.0640577 C14.1239244,94.1054892 14.2488432,94.3347151 14.2488432,94.5429132 C14.2488432,95.0009487 14.3945818,95.0009487 8.93979461,94.6259842 Z M131.131192,94.6468039 C131.048121,94.4594257 131.068732,94.2304079 131.131192,94.1471287 C131.29775,93.9805704 140.625228,93.9599588 141.666219,94.1054892 C142.061586,94.1681568 140.437851,94.3553268 138.022753,94.4804537 C135.628477,94.6259842 133.109073,94.7927507 132.463868,94.8758217 C131.464309,94.9799208 131.235291,94.9382812 131.131192,94.6468039 Z M2.58975607,88.9005396 C3.63074601,88.7550092 8.62749765,88.3175852 13.4991223,87.9428289 L15.3314728,87.7970903 L15.1857341,88.2967654 C15.102455,88.5674227 15.0191758,88.8172604 14.9983559,88.8172604 C14.9983559,88.8380801 11.9378456,88.9003314 8.21110167,88.9421791 C4.48435774,89.0046386 1.96516213,88.9838187 2.58975607,88.9005396 Z M134.982855,88.9632072 L130.25676,88.9005396 L130.152661,88.3592248 L130.048563,87.81791 L131.963984,87.9428289 C135.253512,88.1926664 141.291254,88.7131613 142.811307,88.8797197 C144.455863,89.0673062 144.580782,89.0673062 134.982855,88.9632072 L134.982855,88.9632072 Z M91.2820977,83.4665722 C89.8247117,82.8836178 88.9919198,81.2594653 89.4083158,79.760648 C90.1784401,76.866696 94.1758414,76.5960386 95.3209304,79.3650718 C95.7997857,80.5309806 95.6542553,81.5303308 94.8837145,82.4672218 C93.9678516,83.5498513 92.5312855,83.9454275 91.2820977,83.4665722 Z M1.42384736,83.3208335 C1.48651495,83.2167346 1.88188293,83.070996 2.31930689,83.0085366 C2.75652266,82.9460772 4.42210655,82.6546 6.02523103,82.3631229 C8.52360685,81.9256988 15.852176,80.78061 16.2269323,80.78061 C16.3100033,80.78061 16.3310313,81.0304475 16.2893917,81.3635643 C16.2269323,81.9256988 16.2061125,81.9256988 14.2490515,82.0714375 C11.3759192,82.3004553 2.13192872,83.2789858 1.67389314,83.4247244 C1.44466716,83.4873919 1.34056817,83.4457523 1.42384736,83.3208335 Z M141.77011,83.1750949 C140.625021,83.0293564 137.397951,82.6962396 134.587278,82.4255822 C131.776606,82.1757446 129.361301,81.8634477 129.23659,81.7593486 C129.090851,81.6552497 128.965933,81.3845923 128.965933,81.1555745 C128.965933,80.8018461 129.070032,80.7602065 129.757085,80.8643056 C130.173481,80.9267649 131.839065,81.1766025 133.442189,81.4056202 C136.898276,81.9261153 144.643241,83.2794021 144.767952,83.4045291 C144.913899,83.5290316 144.039467,83.4665722 141.77011,83.1750949 L141.77011,83.1750949 Z" id="Shape"></path>
                    <path d="M0.341217843,77.5537494 C0.486956433,77.4080108 8.08618288,75.7007873 11.3340715,75.0761933 C23.9508694,72.6819165 37.213081,71.2453504 54.8474503,70.3500991 C61.1974889,70.0167741 83.0790971,70.0167741 89.6165138,70.3290711 C111.414635,71.4117006 129.361301,73.6602389 143.268926,77.0540742 C145.225987,77.5329296 145.850582,77.803587 144.476682,77.5745692 C127.154611,74.7847162 110.89414,73.3273302 89.2001178,72.6402769 C80.5599014,72.3696196 55.284666,72.4945383 48.1851148,72.8484749 C29.468116,73.7853658 12.0835842,75.5134091 2.4023779,77.3455514 C0.757613812,77.6786682 0.153839656,77.7203078 0.341217843,77.5537494 L0.341217843,77.5537494 Z" id="Path"></path>
                    <path d="M0.0289208654,72.6402769 C0.403677239,72.2655205 8.33581227,70.162721 14.7693381,68.7469746 L16.4349221,68.3722183 L16.4973815,65.6656444 L16.5598408,62.9590706 L17.6424704,62.3969361 C18.2254247,62.1054589 19.5995314,61.3769741 20.682161,60.7938116 L22.639222,59.7320019 L24.7003821,60.6688927 C25.824443,61.1893878 26.7823619,61.6266035 26.8448214,61.6266035 C26.9072807,61.6266035 26.9489203,56.8796895 26.9489203,51.0501459 L26.9489203,40.494508 L28.8016742,39.4951578 L30.6340247,38.5166272 L37.2963602,38.5166272 L39.0868628,39.5159775 L40.8981853,40.494508 L40.8981853,54.6727908 L41.7099493,55.1308264 C42.3555711,55.5055827 42.6260204,55.5472223 43.0632361,55.3804558 C43.5837311,55.1932858 43.6047591,55.1097984 43.6047591,53.7148719 C43.6047591,52.2991256 43.6255789,52.2160546 44.229353,51.8827296 L44.853947,51.528793 L44.853947,46.7402394 C44.853947,42.9926757 44.9164064,41.8475868 45.1452159,41.5352898 C45.3119826,41.306272 45.457513,40.4112289 45.4991526,39.5157693 C45.5616119,38.3917085 45.6865307,37.8087541 45.9571881,37.5378884 C46.1862059,37.2672311 46.3111247,36.7883757 46.3111247,36.0390712 C46.3111247,35.4559086 46.4568633,34.6231167 46.6234217,34.2067207 C46.7899801,33.8113527 46.9357186,33.0202004 46.9357186,32.4786775 C46.9357186,31.6250657 47.0187896,31.3960479 47.5392847,30.9796519 C48.1014192,30.5218246 48.1430588,30.376086 48.9135995,25.0251896 C49.3716351,22.0271386 49.788031,19.6328618 49.8713102,19.7161409 C49.9337696,19.82024 50.3501656,22.2561564 50.7873814,25.1709282 C51.557714,30.3342382 51.5785337,30.4799768 52.1614881,30.9794437 C52.6611633,31.3958397 52.7652623,31.6250657 52.7652623,32.4368296 C52.7652623,32.9783526 52.9110008,33.7901165 53.0775593,34.2481521 C53.2441176,34.7061876 53.3688282,35.5389796 53.3898561,36.0802944 C53.3898561,36.6424289 53.514775,37.2880509 53.6396938,37.5376803 C53.7852241,37.7875178 53.9519908,38.7037972 54.0350618,39.5572008 C54.118341,40.4110207 54.3265389,41.493442 54.4930973,41.9514776 C54.7637547,42.6177111 54.8262141,43.6795208 54.8470338,47.1774552 L54.8470338,51.5914606 L55.3675289,51.9247856 C55.8255645,52.2370826 55.8880238,52.403641 55.8880238,53.6111893 C55.8880238,54.8189459 55.9504832,54.9855042 56.4085187,55.2978012 C56.6997878,55.4849712 56.9290138,55.7766566 56.9290138,55.9223952 C56.9290138,56.2763317 57.0331127,56.2763317 57.5744275,55.9848545 C57.9077525,55.8182961 58.2200494,55.9015753 59.1150926,56.4220704 L60.2601815,57.0676922 L60.2601815,58.6081491 C60.2601815,59.9406163 60.3226409,60.190662 60.6765775,60.377832 C61.0719454,60.58603 61.0929734,60.5445986 61.0929734,59.7118067 C61.1137933,58.8579867 61.1554328,58.7957356 62.2170344,58.1503218 C62.8416283,57.7753572 63.4662223,57.4630602 63.6327807,57.4630602 C63.7785193,57.4630602 64.4031132,57.7545374 65.0277072,58.0876542 C65.6314813,58.4209792 66.2144357,58.6708167 66.2979231,58.6081491 C66.380994,58.5456898 66.4644815,53.7987757 66.4850931,48.0525113 L66.5065375,37.5797363 L67.0270324,37.1633403 L67.5475274,36.7261246 L67.5475274,28.314926 L68.3803194,27.794431 C69.1920833,27.294964 69.2131113,27.2322964 69.2131113,26.1498752 C69.2131113,25.1919562 69.2755706,24.9837582 69.6295072,24.8796592 C69.9832356,24.7755602 70.0459032,24.5673622 70.0459032,23.4222733 C70.0459032,22.1522656 70.066723,22.0689864 70.6704971,21.7566894 C71.0242255,21.5695194 71.2950911,21.3613215 71.2950911,21.2778341 C71.2950911,21.1943467 71.5863601,16.635019 71.919685,11.1385922 C72.2734135,5.64237359 72.544279,0.895251335 72.544279,0.582954358 C72.544279,0.249837582 72.648378,0 72.752477,0 C72.8773958,0 72.960675,0.541522959 72.9814948,1.20754831 C72.9814948,1.85317026 73.2937917,6.70397512 73.6477283,11.9507725 C74.1471953,18.8837655 74.397241,21.5486997 74.5846192,21.6109508 C75.2092132,21.8191488 75.4590508,22.3396438 75.4590508,23.4847327 C75.4590508,24.4426516 75.5421217,24.7339206 75.8754467,24.9421186 C76.2085636,25.1503166 76.2918427,25.4211822 76.2918427,26.2954055 C76.2918427,27.3780351 76.3126625,27.4196746 77.1246347,27.8779184 L77.9574267,28.3359539 L77.9574267,37.2051881 L78.4779216,37.4342059 L78.9984165,37.6840435 L78.9984165,54.1108645 L81.8090893,55.6307098 L84.6197621,57.1505551 L84.6197621,59.0870045 C84.6197621,60.2735249 84.7028331,61.0022177 84.8279601,61.0022177 C84.9528789,61.0022177 85.3274271,60.8566874 85.6607521,60.6899208 C86.264318,60.3776238 86.285346,60.3151644 86.285346,58.8161389 L86.285346,57.2544458 L87.2430567,56.7966185 L88.1799477,56.3175549 L88.9919198,56.7966185 C89.4497471,57.0462479 89.8455316,57.2544458 89.9079909,57.2544458 C89.9912702,57.2544458 90.0331179,55.2557452 90.0331179,52.8198288 C90.0331179,47.9688158 90.0120899,48.0520949 91.3447652,47.3025821 L92.1359176,46.8445466 L93.3642857,47.4691406 L94.5924456,48.0937345 L94.654905,50.4255519 L94.7175726,52.7781892 L95.9667605,53.4444228 L97.2159484,54.1106563 L97.3198392,47.6356989 L97.4239382,41.1607416 L100.067844,39.7866349 L102.711959,38.41232 L104.273444,39.245112 L105.855957,40.0779039 L105.855957,41.1399218 C105.855957,42.2017315 105.855957,42.2017315 106.896947,42.7638661 L107.937936,43.3260007 L107.937936,55.068367 L109.041386,55.6515295 C109.644952,55.9638265 110.186475,56.213456 110.248934,56.213456 C110.353033,56.213456 110.519591,54.7977096 110.68615,52.2787222 C110.707178,52.1329836 111.019475,51.7998669 111.414843,51.5500293 C112.018617,51.1750647 112.206203,50.8003083 112.913868,48.6142295 C113.371904,47.2401228 113.767688,45.8451963 113.809119,45.4912597 C113.850759,44.9707648 113.975887,44.8666657 114.392282,44.8666657 C114.85011,44.8666657 114.933597,44.9707648 115.016876,45.6994576 C115.079335,46.1574932 115.474704,47.5732395 115.932739,48.8434554 C116.578361,50.7380571 116.82799,51.2167043 117.327665,51.5083896 C117.827341,51.800075 117.931439,52.0080648 117.931439,52.6742983 C117.931439,53.1117224 118.035539,53.5487299 118.139638,53.6111893 C118.264557,53.6944685 118.347835,55.5890702 118.347835,58.6289689 C118.347835,62.8137484 118.389267,63.5005936 118.660132,63.5005936 C119.201448,63.5005936 119.263698,63.4175225 119.201448,62.7302611 C119.180628,62.3555047 119.201448,61.8766493 119.284727,61.6478397 C119.409645,61.2104158 121.824533,59.7530298 122.407696,59.7530298 C122.594867,59.7530298 124.156351,60.4817228 125.863783,61.3771823 L128.965933,62.9798905 L128.965933,68.4763172 L130.173481,68.705335 C134.48318,69.5591549 145.663204,72.432079 146.017348,72.7862237 C146.183906,72.9527821 145.705051,72.8692947 142.977657,72.2447008 C136.627619,70.8289545 125.155702,69.03866 116.369954,68.1017691 C102.753807,66.6649948 92.3439074,66.0612207 77.1246347,65.8530226 C49.5592215,65.499086 22.5559429,67.7892639 2.52729669,72.2238809 C1.06991079,72.5361779 -0.0543583285,72.7235561 0.0289208654,72.6402769 L0.0289208654,72.6402769 Z M127.924943,65.9363018 L127.924943,63.5836646 L125.3639,62.2928371 C123.948153,61.5851721 122.719994,61.0020096 122.657326,61.0020096 C122.574255,61.0020096 122.511795,62.3969361 122.511795,64.1249793 C122.511795,67.1854897 122.511795,67.2479491 122.990651,67.3520482 C123.407047,67.4561471 127.404448,68.2264797 127.779204,68.2681192 C127.862275,68.2889391 127.924943,67.2271293 127.924943,65.9363018 Z M25.2833365,66.8315531 C26.0328492,66.7274542 26.6990827,66.6233552 26.8031818,66.6233552 C26.886461,66.6233552 26.9489203,65.7905633 26.9489203,64.7495733 L26.9489203,62.8757914 L24.8669405,61.8348015 L22.7849606,60.7938116 L22.7849606,67.2895887 L23.367915,67.16467 C23.680212,67.1022105 24.5338236,66.9564719 25.2833365,66.8315531 L25.2833365,66.8315531 Z M117.515043,60.3774156 L117.515043,54.3396741 L116.057658,53.6109811 C115.266298,53.2156131 114.558632,52.8822881 114.496173,52.8822881 C114.433506,52.8822881 114.392074,55.8803391 114.392074,59.5238039 L114.392074,66.1861394 L115.287325,66.2692103 C115.766181,66.31085 116.474054,66.3524896 116.84881,66.3733094 L117.515043,66.414949 L117.515043,60.3774156 Z M33.8819132,65.6656444 L35.2768397,65.5199059 L35.2768397,57.0878875 L35.9014336,56.8380498 L36.5260276,56.5884204 L36.5260276,42.0353813 L33.6737152,42.0978408 C31.5292759,42.1394804 30.8005831,42.2227596 30.8214028,42.4309575 C30.8424308,42.5560845 30.8630424,47.9482041 30.8838622,54.3609103 L30.904682,66.0612207 L31.6958344,65.9363018 C32.1122303,65.8530226 33.0907608,65.7489237 33.8819132,65.6656444 L33.8819132,65.6656444 Z M41.8975357,64.7495733 L42.3555711,64.7495733 L42.3555711,56.6714915 L41.6058503,56.2342757 C41.2104823,55.9844382 40.7940864,55.79706 40.6691675,55.79706 C40.5650686,55.79706 40.4819975,57.650022 40.4819975,60.3984436 L40.4819975,64.9996191 L40.9608529,64.8747002 C41.2104823,64.8120327 41.6268783,64.7495733 41.8975357,64.7495733 Z M97.3198392,59.7528217 L97.3198392,55.172466 L96.0706513,54.5478721 C95.3833897,54.2147552 94.7798238,53.9232781 94.7173645,53.9232781 C94.6546969,53.9232781 94.6132654,56.213456 94.6132654,59.0033089 L94.6132654,64.1041595 L95.5085168,64.1872305 C95.9873721,64.2288701 96.5911462,64.2705097 96.8618036,64.2913295 L97.3198392,64.3329691 L97.3198392,59.7528217 Z M55.4304046,63.7918625 C55.8884402,63.7085833 55.8884402,63.6667356 55.8884402,59.8985603 C55.8884402,56.3383747 55.8674122,56.0885371 55.4720442,55.8386996 C55.1181077,55.6305016 55.0556482,55.3598442 55.0556482,54.2355751 C55.0556482,52.9863872 55.0140086,52.8822881 54.4310544,52.5491714 L53.8272802,52.174415 L53.7648207,47.0943842 L53.7023614,42.0143533 L53.119407,41.5148864 C52.3074349,40.827833 51.4327951,40.8692644 50.6624626,41.6189853 L50.0588967,42.2225514 L50.0588967,64.1249793 L52.5156328,64.0000606 C53.8481,63.9376011 55.1597473,63.854322 55.4304046,63.7918625 Z M93.7388338,56.7131311 C93.7596537,52.7157298 93.7388338,49.2596433 93.6971942,49.0306255 C93.6347349,48.7807878 93.2599785,48.4270595 92.8435826,48.2394732 L92.1148896,47.8855365 L92.1148896,63.8959616 L92.697844,63.9790326 C93.0101409,64.0206722 93.3640775,64.0417002 93.4681764,64.0206722 C93.5930953,64.0000606 93.6971942,61.3559461 93.7388338,56.7131311 Z M89.7830721,61.0646772 L89.8455316,58.3370754 L89.0960188,57.8998596 C88.6796228,57.6708418 88.3046583,57.4626439 88.2424071,57.4626439 C88.2007675,57.4626439 88.1593361,58.8575703 88.1593361,60.5647938 L88.1593361,63.6877636 L88.7422904,63.7708346 C89.0545874,63.8124742 89.408524,63.8335022 89.512623,63.8124742 C89.6373335,63.7918625 89.7414325,62.6675935 89.7830721,61.0646772 L89.7830721,61.0646772 Z M60.4271563,62.5426746 C60.4896157,61.5849639 60.4271563,61.3975857 59.8442019,60.8354512 C59.2820674,60.2524968 59.219608,60.0859385 59.219608,58.8575703 C59.219608,57.6294104 59.1779684,57.5042835 58.699113,57.2960854 C58.4076358,57.1503469 58.1161587,57.0462479 58.0745191,57.0462479 C58.0120596,57.0462479 57.9704201,58.5452733 57.9704201,60.3774156 L57.9704201,63.7294032 L59.1779684,63.6667356 L60.3646969,63.6042762 L60.4271563,62.5426746 L60.4271563,62.5426746 Z M66.2983394,61.6892711 L66.2983394,59.8569207 L65.0699714,59.1908953 C64.382918,58.8159307 63.7791439,58.5036337 63.7166844,58.5036337 C63.6542251,58.5036337 63.5917657,59.6279029 63.5917657,61.0020096 L63.5917657,63.5003854 L66.2983394,63.5003854 L66.2983394,61.6892711 Z M78.1656246,50.9044073 L78.1656246,38.2876094 L77.5410307,37.9336729 L76.9164367,37.5797363 L76.9164367,28.7937813 L76.1877437,28.3984133 C75.4798706,28.0236569 75.4590508,27.9609894 75.4590508,26.8369284 C75.4590508,25.7959385 75.3963832,25.6502 74.9385558,25.4420019 C74.4594923,25.2129842 74.4180609,25.0880653 74.4180609,23.880517 L74.4180609,22.5688698 L73.585269,22.0900144 L72.752477,21.6319788 L72.752477,63.5003854 L78.1656246,63.5003854 L78.1656246,50.9044073 Z M83.7869702,60.6272533 L83.7869702,57.7335094 L81.5176122,56.5673925 C80.2684243,55.901159 79.2066146,55.380664 79.1233353,55.380664 C79.060876,55.380664 78.9984165,57.2130144 78.9984165,59.4405247 L78.9984165,63.5003854 L83.7869702,63.5003854 L83.7869702,60.6272533 Z M110.436312,59.9610196 L110.436312,57.4626439 L109.187124,56.8380498 L107.937936,56.213456 L107.937936,62.2303776 L108.937287,62.3134487 C109.478602,62.3550882 110.040736,62.3967278 110.186475,62.4175477 C110.373645,62.4593954 110.436312,61.8348015 110.436312,59.9610196 Z M107.063505,49.5094808 L107.105145,43.9297748 L105.647759,43.2010819 C104.856398,42.8057139 104.148733,42.4723889 104.086274,42.4723889 C104.023606,42.4723889 103.982175,45.657818 103.982175,49.5511204 L103.982175,56.6506717 L105.50202,55.8595193 L107.001045,55.0681588 L107.063505,49.5094808 Z M38.9411242,55.1516462 L40.0653934,54.5270522 L40.0653934,43.5341986 L38.9411242,42.9096047 C38.3375583,42.5556681 37.7752155,42.2639827 37.6919363,42.2639827 C37.629477,42.2639827 37.5670175,45.3038815 37.5670175,49.0304172 C37.5670175,52.7571612 37.629477,55.796852 37.6919363,55.796852 C37.7752155,55.79706 38.3373501,55.5055827 38.9411242,55.1516462 Z M117.098647,52.6326588 C117.098647,52.4869201 116.536514,52.0494962 115.84946,51.6747398 C114.683343,51.0293261 114.600272,51.0293261 114.600272,51.4040824 C114.600272,51.6955597 114.912569,51.9870368 115.599622,52.3409734 C116.703071,52.9239277 117.098647,53.0072069 117.098647,52.6326588 Z M115.037487,49.0098056 L114.641911,47.7814376 L114.621092,48.864067 C114.600272,49.696859 114.683551,49.9883362 114.954208,50.1548945 C115.162407,50.2589935 115.349785,50.321453 115.370604,50.3006331 C115.412244,50.2589935 115.266298,49.696859 115.037487,49.0098056 L115.037487,49.0098056 Z M29.3431971,42.6389473 C30.592385,42.0143533 30.696484,41.9102543 30.696484,41.2856605 C30.696484,40.910904 30.6340247,40.5986071 30.5713571,40.5986071 C30.5088977,40.5986071 29.8426641,40.9319321 29.1139711,41.3483281 C27.9480624,41.9937418 27.7817123,42.160092 27.7817123,42.7016149 C27.7817123,43.0347317 27.8233519,43.3051808 27.8858112,43.3051808 C27.9274508,43.3051808 28.5936844,43.0137037 29.3431971,42.6389473 Z M40.0653934,41.431399 C40.0653934,41.0774624 39.170142,40.4528684 37.7335759,39.8074547 C37.629477,39.7658152 37.5670175,39.9115537 37.5670175,40.1405715 C37.5670175,40.4320487 37.9209541,40.7651654 38.6704668,41.2025894 C39.9612943,41.951894 40.0653934,41.9727137 40.0653934,41.431399 L40.0653934,41.431399 Z M105.023165,41.223201 C105.023165,40.9733635 104.710868,40.6196351 104.169345,40.2863101 C102.878517,39.4535182 102.732987,39.4326983 102.732987,40.0572923 C102.732987,40.4736883 102.920157,40.7027061 103.732337,41.0982822 C104.939886,41.7436959 105.023165,41.7436959 105.023165,41.223201 Z M36.5260276,39.8490943 L36.5260276,39.3494191 L33.7569944,39.3494191 C32.2163293,39.3494191 30.9252937,39.3910587 30.8630424,39.4535182 C30.8007912,39.5159775 30.8005831,39.7658152 30.8422226,40.0364725 C30.9252937,40.494508 30.987753,40.494508 33.7359665,40.4320487 L36.5258194,40.3695893 L36.5258194,39.8490943 L36.5260276,39.8490943 Z M52.390714,40.0572923 C53.1608384,40.1822111 53.1818665,40.1613913 53.1818665,39.5992567 C53.1818665,38.6207262 52.7862902,37.7671144 52.2239475,37.4964571 C51.4952545,37.1631321 51.2456252,37.2049799 50.6000032,37.7046551 C50.1211478,38.0794114 50.0586884,38.2876094 50.0586884,39.349211 L50.0586884,40.5775791 L50.829021,40.2652821 C51.3289043,40.0572923 51.891039,39.9740131 52.390714,40.0572923 L52.390714,40.0572923 Z M51.7869399,36.372188 C52.3074349,36.4138276 52.3490744,36.372188 52.3490744,35.6018554 C52.3490744,35.0397209 52.2033358,34.6233249 51.9326785,34.3526675 C51.4330034,33.8532006 51.1415261,33.8321726 50.5169322,34.2695965 C50.1419676,34.5192259 50.0588967,34.7900915 50.0588967,35.6228834 C50.0588967,36.6428454 50.0588967,36.6428454 50.6418509,36.4971068 C50.9541479,36.4138276 51.4538231,36.3513681 51.7869399,36.372188 L51.7869399,36.372188 Z M51.9326785,32.6038044 C51.9326785,31.8540835 51.474643,31.3960479 50.7875896,31.4795354 C50.225455,31.5419947 50.1629956,31.6252739 50.1005363,32.3747866 L50.0378687,33.2075786 L50.9957876,33.1451192 C51.8077597,33.06184 51.9326785,32.9993807 51.9326785,32.6038044 Z M50.4544728,29.5224742 C50.4544728,29.1477179 50.3295541,28.0861164 50.1632039,27.169837 L49.8925465,25.5042532 L49.8715185,27.7111518 C49.8715185,28.9187001 49.9131581,29.9803016 49.9966454,30.0427611 C50.2879145,30.3552662 50.4752926,30.1470683 50.4544728,29.5224742 Z M73.2313324,19.008476 C73.168873,18.1132246 73.0647739,16.7807575 72.960675,16.0312448 C72.835548,14.8861559 72.7939084,15.1153819 72.7732968,17.6551891 C72.752477,20.0080345 72.8149364,20.6116006 73.0231343,20.6116006 C73.2521521,20.6116006 73.2937917,20.2576639 73.2313324,19.008476 Z" id="Shape"></path>
                    <path d="M115.349785,58.2540044 C114.72519,57.3585449 115.141586,55.588862 115.974379,55.588862 C116.411594,55.588862 116.932089,56.9213291 116.765531,57.6294104 C116.494874,58.7744993 115.890891,59.0449485 115.349785,58.2540044 Z M92.5312855,34.4567665 C92.5312855,34.1654976 92.5102576,33.9362715 92.468618,33.9362715 C92.0314022,33.9362715 89.4289274,33.374137 87.5759653,32.853642 C85.4109144,32.2706877 85.2027165,32.2498678 84.8487799,32.5621648 C84.4740235,32.8952816 82.1213863,33.06184 82.1213863,32.749543 C82.1213863,32.645444 82.3085563,32.354175 82.5377823,32.0624896 C83.0997087,31.3548248 83.0582772,31.2507257 82.1838457,30.8757611 L81.3926933,30.5426444 L82.1628177,30.2095276 C83.0166376,29.855591 83.1413483,29.5639056 82.6418812,29.1475097 C81.9756477,28.5853751 82.3295843,28.4604563 84.224186,28.5645554 C85.6815718,28.6478345 86.389445,28.5853751 87.3887953,28.293898 C90.1370087,27.4819258 92.364519,27.1904487 95.7791742,27.1904487 C99.089522,27.1694207 99.1311616,27.1694207 100.33871,27.7940146 C102.212492,28.7519335 102.920157,30.1466518 102.337411,31.7081367 C101.879375,32.8948652 99.6724764,34.1440531 98.0277123,34.1440531 C97.4655778,34.1440531 97.2573798,34.2481521 97.1741006,34.5604491 C97.0700017,34.9352054 96.8826235,34.976845 94.8006436,34.976845 L92.5312855,34.976845 L92.5312855,34.4567665 Z M84.4115642,31.9792104 C84.4115642,31.7918323 83.7869702,31.6877333 83.6828712,31.8540835 C83.599592,31.9792104 83.7453306,32.0622822 83.9741402,32.0622822 C84.224186,32.0624896 84.4115642,32.02085 84.4115642,31.9792104 Z M100.921664,31.3962561 C101.858555,30.9590403 101.941626,30.3138348 101.171502,29.3769439 C100.234611,28.2732864 99.089522,28.002629 95.4460573,28.0236569 C91.969151,28.0444768 89.3456482,28.4608728 86.3267774,29.4810429 C84.5570945,30.0639973 84.5362748,30.0639973 84.7028331,29.6682128 C84.7861123,29.4600149 84.6820133,29.3559158 84.4115642,29.3559158 C83.9741402,29.3559158 83.8494296,29.6682128 84.224186,29.8764109 C84.3491047,29.9805098 84.3074651,30.1262484 84.0784474,30.2928068 C83.7453306,30.5220327 83.911889,30.6051038 85.2651759,30.9174007 C88.2215872,31.6044541 91.0322601,31.8334719 95.6542553,31.7712207 C99.2977201,31.7501926 100.276042,31.6669135 100.921664,31.3962561 Z" id="Shape"></path>
                </g>
            </g>
        </g>
    </g>
</svg>