<?xml version="1.0" encoding="UTF-8"?>
<svg width="192px" height="131px" viewBox="0 0 192 131" version="1.1" xmlns="http://www.w3.org/2000/svg" xmlns:xlink="http://www.w3.org/1999/xlink">
    <!-- Generator: Sketch 61.2 (89653) - https://sketch.com -->
    <title>T</title>
    <desc>Created with Sketch.</desc>
    <g id="Welcome" stroke="none" stroke-width="1" fill="none" fill-rule="evenodd">
        <g id="About" transform="translate(-744.000000, -3448.000000)" fill-rule="nonzero">
            <g id="T" transform="translate(744.000000, 3448.000000)">
                <g id="Group-25" transform="translate(0.000000, 0.500000)">
                    <rect id="Rectangle-Copy-23" fill="#FFFFFF" x="0" y="0" width="192" height="130"></rect>
                    <path d="M127.77895,103.561239 C119.988839,113.520673 97.883877,109.244078 78.4052466,94.0085005 C58.9274548,78.7729228 49.4518628,58.3492488 57.2419734,48.3898148 C65.0320838,38.4295421 87.137885,42.7069753 106.615677,57.942553 C126.094307,73.1781308 135.56906,93.6018047 127.77895,103.561239" id="Fill-1" fill="#818386"></path>
                    <path d="M91.6976571,37.3454673 L71.9481758,37.3454673 C72.2676626,35.7010748 72.5812794,34.0969326 72.8915422,32.4927904 C73.3493894,30.1264081 73.7820802,27.7541559 74.2675995,25.3936434 C74.8344578,22.6440446 76.8218165,21.0591891 79.6284365,21.0575119 C89.5199481,21.0516421 99.4114598,21.0575119 109.302972,21.0373868 C116.979039,21.0206159 124.655107,20.9711415 132.332014,20.9363883 C132.487145,20.9363883 132.642277,20.9363883 132.852752,20.9363883 C132.718584,21.6906157 132.598672,22.3916417 132.471213,23.0909907 C131.875844,26.3529422 131.267058,29.6107011 130.684267,32.8743297 C130.194555,35.6188972 128.186233,37.3504987 125.405608,37.3563685 C120.920215,37.3639155 116.434822,37.35553 111.948591,37.3538528 L111.39431,37.3538528 C111.234148,38.27374 111.075662,39.1735019 110.922208,40.0732639 C110.212796,44.2333002 109.501707,48.3933366 108.797327,52.553373 C108.191896,56.1314572 107.596527,59.7112184 106.991094,63.2893025 C106.576014,65.7420553 106.148354,68.1939695 105.732434,70.6467222 C105.315676,73.1019907 104.907303,75.557259 104.492222,78.0125275 C104.356377,78.8166949 104.249881,79.6292479 104.059531,80.4199986 C103.553887,82.5163685 102.152673,84.1221878 99.6806341,84.3217622 C99.1238379,84.3662053 98.5645263,84.3922003 98.0060535,84.3922003 C92.9596718,84.3980701 87.9132902,84.3964116 82.8669087,84.3964116 L82.2304508,84.3964116 C85.390938,68.6895513 88.53717,53.050632 91.6976571,37.3454673" id="Fill-4" fill="#231F20"></path>
                </g>
            </g>
        </g>
    </g>
</svg>