<?xml version="1.0" encoding="UTF-8"?>
<svg width="192px" height="131px" viewBox="0 0 192 131" version="1.1" xmlns="http://www.w3.org/2000/svg" xmlns:xlink="http://www.w3.org/1999/xlink">
    <!-- Generator: Sketch 61.2 (89653) - https://sketch.com -->
    <title>Group 29</title>
    <desc>Created with Sketch.</desc>
    <g id="Welcome" stroke="none" stroke-width="1" fill="none" fill-rule="evenodd">
        <g id="About" transform="translate(-744.000000, -3257.000000)">
            <g id="Group-29" transform="translate(744.000000, 3257.500000)">
                <rect id="Rectangle-Copy-19" fill="#FFFFFF" x="0" y="0" width="192" height="130"></rect>
                <g id="old-navy" transform="translate(15.000000, 35.000000)" fill-rule="nonzero">
                    <path d="M80.75,0.764972297 C36.5636167,0.764972297 0.742700616,12.3990537 0.742700616,26.75 C0.742700616,41.1018568 36.5636167,52.7350277 80.75,52.7350277 C124.935473,52.7350277 160.757299,41.1018568 160.757299,26.75 C160.757299,12.3990537 124.935473,0.764972297 80.75,0.764972297 Z" id="Path" fill="#000000"></path>
                    <path d="M35.9881949,26.7581943 C35.9881949,32.69906 32.929901,37.088472 27.6281906,37.088472 C22.3273906,37.088472 19.2690967,32.6999704 19.2690967,26.7581943 C19.2690967,20.5141396 22.3018972,16.3068231 27.6281906,16.3068231 C32.9553944,16.3068231 35.9881949,20.5132292 35.9881949,26.7581943 Z" id="Path" fill="#FFFFFF"></path>
                    <path d="M24.6554815,26.8009867 C24.6554815,28.9688337 24.8576075,33.1388206 27.6382058,33.1388206 C30.4188041,33.1388206 30.6209301,28.9688337 30.6209301,26.8009867 C30.6209301,24.6012731 30.3313982,20.2018459 27.6382058,20.2018459 C24.9450134,20.2018459 24.6554815,24.6012731 24.6554815,26.8009867 Z" id="Path" fill="#000000"></path>
                    <path d="M49.1491471,36.783462 L38.9627249,36.783462 L38.9627249,16.6118331 L44.0923551,16.6118331 L44.0923551,33.2981541 L49.1491471,33.2981541 L49.1491471,36.783462 Z M52.4887786,16.6118331 L58.9577212,16.6118331 C61.4897591,16.6118331 63.5091982,16.6446103 65.4020809,18.8079048 C67.2430664,20.8792411 68.087079,23.7426928 68.087079,26.7281485 C68.087079,29.4705068 67.2685597,32.333048 65.657925,34.3124261 C63.918913,36.4766311 61.7456032,36.7843725 59.3164493,36.7843725 L52.4887786,36.7843725 L52.4887786,16.6118331 Z" id="Shape" fill="#FFFFFF"></path>
                    <path d="M58.6508902,33.0687138 C59.367436,33.0687138 59.8272272,33.1379101 60.4918757,32.6562675 C60.9771602,32.2775089 61.3613817,31.7621786 61.6427193,31.1075453 C62.2563811,29.7327243 62.4603281,28.1503144 62.4603281,26.568815 C62.4603281,24.9864051 62.1280038,22.9232631 61.3859646,21.6167279 C60.5428625,20.2063982 59.7243432,20.2755945 58.4970195,20.2755945 L57.8833577,20.2755945 L57.8833577,33.0696243 L58.6508902,33.0696243 L58.6508902,33.0687138 L58.6508902,33.0687138 Z" id="Path" fill="#000000"></path>
                    <path d="M86.6544466,36.783462 L80.5214701,24.5593911 L80.5214701,36.783462 L75.5866821,36.783462 L75.5866821,16.6118331 L80.5824721,16.6118331 L86.678119,28.7621553 L86.678119,16.6118331 L91.6019813,16.6118331 L91.6019813,36.783462 L86.6544466,36.783462 L86.6544466,36.783462 Z M104.544419,33.0332052 L100.75137,33.0332052 L99.7352767,36.783462 L94.2387241,36.783462 L99.3929372,16.6118331 L105.942002,16.6118331 L111.14356,36.783462 L105.488584,36.783462 L104.544419,33.0332052 L104.544419,33.0332052 Z" id="Shape" fill="#FFFFFF"></path>
                    <polygon id="Path" fill="#000000" points="104.035462 29.2346931 102.680671 21.7678671 101.327702 29.2346931"></polygon>
                    <path d="M121.675963,36.783462 L116.233129,36.783462 L111.371179,16.6118331 L116.716592,16.6118331 L118.907201,27.9900703 L120.83104,16.6118331 L126.587989,16.6118331 L121.675963,36.783462 Z M139.094308,26.9821718 L139.094308,36.783462 L133.79715,36.783462 L133.79715,26.9821718 L128.388914,16.6118331 L133.676057,16.6118331 L136.398384,22.4079328 L139.482172,16.6118331 L144.295866,16.6118331 L139.094308,26.9821718 Z" id="Shape" fill="#FFFFFF"></path>
                </g>
            </g>
        </g>
    </g>
</svg>