<?xml version="1.0" standalone="no"?>
<!DOCTYPE svg PUBLIC "-//W3C//DTD SVG 20010904//EN"
 "http://www.w3.org/TR/2001/REC-SVG-20010904/DTD/svg10.dtd">
<svg version="1.0" xmlns="http://www.w3.org/2000/svg"
 width="532.000000pt" height="532.000000pt" viewBox="0 0 532.000000 532.000000"
 preserveAspectRatio="xMidYMid meet">
<metadata>
Created by potrace 1.11, written by Peter Selinger 2001-2013
</metadata>
<g transform="translate(0.000000,532.000000) scale(0.100000,-0.100000)"
fill="#000000" stroke="none">
<path d="M2410 5250 c-903 -94 -1677 -626 -2081 -1430 -188 -374 -273 -736
-273 -1165 0 -305 35 -532 123 -802 291 -891 1025 -1550 1946 -1748 191 -41
288 -50 535 -50 247 0 342 9 540 51 492 104 947 351 1305 709 435 435 699
1004 755 1625 67 750 -214 1514 -755 2055 -400 400 -901 651 -1475 740 -123
19 -494 28 -620 15z m960 -1929 c354 -612 652 -1137 662 -1164 59 -156 17
-345 -104 -466 -64 -64 -173 -120 -249 -128 l-55 -5 -798 866 -797 866 338
585 c259 449 340 582 349 572 6 -6 301 -513 654 -1126z m-1080 -1331 l743
-425 -502 -3 c-275 -1 -726 -1 -1000 0 l-499 3 246 428 c136 235 252 426 258
425 7 -2 346 -194 754 -428z"/>
</g>
</svg>
